<svg xmlns="http://www.w3.org/2000/svg" width="900" height="450" viewBox="0 0 18 9">
  <rect width="18" height="9" fill="#fff"/>
  <path d="M0 0l9 4.5L0 9z" fill="#fff"/>
  <path d="M0 0h18v4.5H0z" fill="#0038a8"/>
  <path d="M0 4.5h18V9H0z" fill="#ce1126"/>
  <path d="M0 0l9 4.5L0 9z" fill="#fff"/>
  <circle cx="3" cy="4.5" r="1.2" fill="#fcd116"/>
  <path d="M3 2.8l.2.5h.5l-.4.3.1.6-.4-.4-.4.4.1-.6-.4-.3h.5z" fill="#fcd116"/>
  <path d="M3 6.2l.2.5h.5l-.4.3.1.6-.4-.4-.4.4.1-.6-.4-.3h.5z" fill="#fcd116"/>
  <path d="M1.5 4.5l.2.5h.5l-.4.3.1.6-.4-.4-.4.4.1-.6-.4-.3h.5z" fill="#fcd116"/>
</svg>
